# xmcd
#
# Track frame offsets:
#	150
#	41174
#	68180
#	88997
#	105471
#	149520
#	170137
#	187778
#	207788
#	229689
#	245141
#	266804
#
# Disc length: 3785 seconds
# Revision: 0
# Processed by: cddbd v1.5.2PL0 Copyright (c) Steve Scherf et al.
# Submitted via: dBpowerAMP V12.0
#
DISCID=b40ec70c
DTITLE=The Lil Smokies - Live at the Bluebird
DYEAR=2019
DGENRE=bluegrass
TTITLE0=Mending the Fence
TTITLE1=Decades
TTITLE2=When My Time Comes
TTITLE3=Might as Well
TTITLE4=The Toothfairy
TTITLE5=The City (Slow Version)
TTITLE6=Cheatin' Kind of Life
TTITLE7=Hitchcock
TTITLE8=High as a Georgia Pine
TTITLE9=The Gallery
TTITLE10=Gone At Last
TTITLE11=These Days
EXTD=
EXTT0=
EXTT1=
EXTT2=
EXTT3=
EXTT4=
EXTT5=
EXTT6=
EXTT7=
EXTT8=
EXTT9=
EXTT10=
EXTT11=
PLAYORDER=
